<svg width="24" height="20" viewBox="0 0 24 20" fill="none" xmlns="http://www.w3.org/2000/svg">
<rect x="2" width="20" height="20" rx="3" fill="#022864"/>
<path d="M6.67309 4.296C6.76376 4.24267 6.89976 4.192 7.08109 4.144C7.26776 4.096 7.45443 4.072 7.64109 4.072C7.90776 4.072 8.14243 4.112 8.34509 4.192C8.55309 4.26667 8.68643 4.38667 8.74509 4.552C8.84109 4.82933 8.94509 5.152 9.05709 5.52C9.16909 5.888 9.28109 6.26933 9.39309 6.664C9.50509 7.05333 9.61443 7.44 9.72109 7.824C9.82776 8.20267 9.92109 8.53867 10.0011 8.832C9.93709 8.90667 9.84109 8.96533 9.71309 9.008C9.58509 9.056 9.43309 9.08 9.25709 9.08C9.12909 9.08 9.01976 9.06933 8.92909 9.048C8.84376 9.02667 8.77176 8.99467 8.71309 8.952C8.65976 8.90933 8.61443 8.85333 8.57709 8.784C8.54509 8.71467 8.51576 8.63467 8.48909 8.544L8.34509 7.992H6.89709C6.85443 8.152 6.81176 8.31733 6.76909 8.488C6.72643 8.65867 6.68376 8.824 6.64109 8.984C6.56643 9.01067 6.48643 9.032 6.40109 9.048C6.32109 9.06933 6.22243 9.08 6.10509 9.08C5.83309 9.08 5.63043 9.03467 5.49709 8.944C5.36909 8.848 5.30509 8.71733 5.30509 8.552C5.30509 8.47733 5.31576 8.40267 5.33709 8.328C5.35843 8.25333 5.38243 8.16533 5.40909 8.064C5.44643 7.92 5.49709 7.74133 5.56109 7.528C5.63043 7.31467 5.70509 7.08533 5.78509 6.84C5.86509 6.58933 5.95043 6.33333 6.04109 6.072C6.13176 5.81067 6.21709 5.56533 6.29709 5.336C6.37709 5.10133 6.44909 4.89333 6.51309 4.712C6.58243 4.53067 6.63576 4.392 6.67309 4.296ZM7.63309 5.328C7.55843 5.552 7.47309 5.80267 7.37709 6.08C7.28643 6.352 7.20376 6.62933 7.12909 6.912H8.12109C8.04643 6.624 7.96909 6.344 7.88909 6.072C7.81443 5.79467 7.74509 5.54667 7.68109 5.328H7.63309ZM13.0506 5.128C12.6399 5.128 12.3253 5.25333 12.1066 5.504C11.8879 5.75467 11.7786 6.10933 11.7786 6.568C11.7786 7.032 11.8986 7.38933 12.1386 7.64C12.3839 7.89067 12.7119 8.016 13.1226 8.016C13.3413 8.016 13.5253 7.98667 13.6746 7.928C13.8293 7.86933 13.9759 7.80267 14.1146 7.728C14.2053 7.80267 14.2746 7.89333 14.3226 8C14.3759 8.10133 14.4026 8.22133 14.4026 8.36C14.4026 8.57867 14.2799 8.76533 14.0346 8.92C13.7946 9.06933 13.4266 9.144 12.9306 9.144C12.5733 9.144 12.2373 9.09333 11.9226 8.992C11.6079 8.89067 11.3333 8.736 11.0986 8.528C10.8639 8.31467 10.6773 8.048 10.5386 7.728C10.4053 7.40267 10.3386 7.016 10.3386 6.568C10.3386 6.152 10.4026 5.78667 10.5306 5.472C10.6639 5.152 10.8426 4.88267 11.0666 4.664C11.2959 4.44533 11.5626 4.28 11.8666 4.168C12.1706 4.056 12.4959 4 12.8426 4C13.3333 4 13.7119 4.08 13.9786 4.24C14.2506 4.4 14.3866 4.60533 14.3866 4.856C14.3866 4.99467 14.3519 5.11467 14.2826 5.216C14.2133 5.31733 14.1333 5.39733 14.0426 5.456C13.9039 5.36533 13.7546 5.288 13.5946 5.224C13.4399 5.16 13.2586 5.128 13.0506 5.128ZM18.5569 4.152C18.5942 4.21067 18.6262 4.29067 18.6529 4.392C18.6849 4.488 18.7009 4.58933 18.7009 4.696C18.7009 4.904 18.6556 5.05333 18.5649 5.144C18.4796 5.22933 18.3622 5.272 18.2129 5.272H16.5329V6.176H18.2849C18.3276 6.23467 18.3622 6.312 18.3889 6.408C18.4209 6.504 18.4369 6.60533 18.4369 6.712C18.4369 6.91467 18.3916 7.06133 18.3009 7.152C18.2156 7.23733 18.0982 7.28 17.9489 7.28H16.5489V8.968C16.4902 8.984 16.3969 9 16.2689 9.016C16.1462 9.032 16.0236 9.04 15.9009 9.04C15.7782 9.04 15.6689 9.02933 15.5729 9.008C15.4822 8.992 15.4049 8.96 15.3409 8.912C15.2769 8.864 15.2289 8.79733 15.1969 8.712C15.1649 8.62667 15.1489 8.51467 15.1489 8.376V4.896C15.1489 4.66667 15.2156 4.48533 15.3489 4.352C15.4822 4.21867 15.6636 4.152 15.8929 4.152H18.5569ZM12.941 14.208C12.941 14.496 12.8903 14.76 12.789 15C12.693 15.2347 12.5517 15.4373 12.365 15.608C12.1783 15.7733 11.9517 15.9013 11.685 15.992C11.4183 16.0827 11.117 16.128 10.781 16.128C10.445 16.128 10.1437 16.0827 9.877 15.992C9.61033 15.9013 9.38367 15.7733 9.197 15.608C9.01033 15.4373 8.86633 15.2347 8.765 15C8.669 14.76 8.621 14.496 8.621 14.208V11.152C8.67967 11.1413 8.773 11.128 8.901 11.112C9.029 11.0907 9.15167 11.08 9.269 11.08C9.39167 11.08 9.49833 11.0907 9.589 11.112C9.685 11.128 9.765 11.16 9.829 11.208C9.893 11.256 9.941 11.3227 9.973 11.408C10.005 11.4933 10.021 11.6053 10.021 11.744V14.184C10.021 14.44 10.0903 14.64 10.229 14.784C10.373 14.928 10.557 15 10.781 15C11.0103 15 11.1943 14.928 11.333 14.784C11.4717 14.64 11.541 14.44 11.541 14.184V11.152C11.5997 11.1413 11.693 11.128 11.821 11.112C11.949 11.0907 12.0717 11.08 12.189 11.08C12.3117 11.08 12.4183 11.0907 12.509 11.112C12.605 11.128 12.685 11.16 12.749 11.208C12.813 11.256 12.861 11.3227 12.893 11.408C12.925 11.4933 12.941 11.6053 12.941 11.744V14.208ZM15.3575 15.968C15.2988 15.984 15.2055 16 15.0775 16.016C14.9548 16.032 14.8322 16.04 14.7095 16.04C14.5868 16.04 14.4775 16.0293 14.3815 16.008C14.2908 15.992 14.2135 15.96 14.1495 15.912C14.0855 15.864 14.0375 15.7973 14.0055 15.712C13.9735 15.6267 13.9575 15.5147 13.9575 15.376V11.152C14.0162 11.1413 14.1095 11.128 14.2375 11.112C14.3655 11.0907 14.4882 11.08 14.6055 11.08C14.7282 11.08 14.8348 11.0907 14.9255 11.112C15.0215 11.128 15.1015 11.16 15.1655 11.208C15.2295 11.256 15.2775 11.3227 15.3095 11.408C15.3415 11.4933 15.3575 11.6053 15.3575 11.744V15.968Z" fill="white"/>
</svg>
